<svg width="24" height="29" viewBox="0 0 24 29" fill="none" xmlns="http://www.w3.org/2000/svg">
<path d="M22.8572 9.88709C22.689 10.0176 19.7191 11.6911 19.7191 15.4121C19.7191 19.7162 23.4982 21.2388 23.6113 21.2765C23.5939 21.3693 23.0109 23.3618 21.6188 25.392C20.3774 27.1786 19.081 28.9623 17.1088 28.9623C15.1366 28.9623 14.6291 27.8167 12.3523 27.8167C10.1336 27.8167 9.34474 29 7.54075 29C5.73677 29 4.47805 27.3468 3.0308 25.3166C1.35444 22.9326 0 19.2289 0 15.7138C0 10.0756 3.66597 7.08541 7.27393 7.08541C9.19102 7.08541 10.7891 8.34414 11.9927 8.34414C13.1383 8.34414 14.9249 7.01 17.1059 7.01C17.9325 7.01 20.9024 7.08541 22.8572 9.88709ZM16.0705 4.62306C16.9725 3.55286 17.6106 2.06791 17.6106 0.582958C17.6106 0.377038 17.5932 0.168217 17.5555 0C16.0879 0.0551055 14.3419 0.977398 13.2891 2.19842C12.4625 3.13811 11.6911 4.62306 11.6911 6.12831C11.6911 6.35454 11.7288 6.58076 11.7462 6.65327C11.839 6.67067 11.9898 6.69097 12.1406 6.69097C13.4573 6.69097 15.1134 5.80928 16.0705 4.62306Z" fill="black"/>
</svg>
