<svg width="60" height="100" viewBox="0 0 60 100" fill="none" xmlns="http://www.w3.org/2000/svg">
<path d="M23.9503 6.79046C20.9323 8.57986 19.1269 11.8677 18.0906 15.2133C16.1719 21.4073 15.017 27.8113 14.6514 34.2839L13.5567 53.6617L0 94.9224C11.7492 104.837 55.9126 97.1758 55.9126 97.1758C55.9126 97.1758 57.2683 96.7251 55.9126 95.373C54.5569 94.0209 53.2371 95.2188 54.5928 93.8667C55.9485 92.5147 55.014 94.021 54.5621 92.6689C54.1102 91.3168 54.5621 92.2182 55.014 91.7675C55.4658 91.3168 51.5156 87.2606 51.5156 87.2606L55.1308 63.5766L59.6497 15.8041C54.227 9.04382 43.3212 5.05869 43.3212 5.05869L40.5033 0L26.4137 1.12415L23.9503 6.79046Z" fill="#3F3D56"/>
</svg>
