<svg width="143" height="2" viewBox="0 0 143 2" fill="none" xmlns="http://www.w3.org/2000/svg">
<path d="M123.546 0V1.12408H130.41V0H123.546ZM109.818 0V1.12408H116.682V0H109.818ZM96.0904 0V1.12408H102.954V0H96.0904ZM82.3624 0V1.12408H89.2264V0H82.3624ZM68.6344 0V1.12408H75.4984V0H68.6344ZM54.9064 0V1.12408H61.7704V0H54.9064ZM41.1784 0V1.12408H48.0424V0H41.1784ZM27.456 0V1.12408H34.3144V0H27.456ZM13.728 0V1.12408H20.592V0H13.728ZM0 0V1.12408H6.864V0H0ZM143 0H137.274V1.12408H142.6L143 0Z" fill="#E6E6E6"/>
</svg>
