<svg width="160" height="2" viewBox="0 0 160 2" fill="none" xmlns="http://www.w3.org/2000/svg">
<path d="M160 0.671772C160 0.760066 159.983 0.847527 159.949 0.92915C159.915 1.01077 159.866 1.08496 159.803 1.14739C159.741 1.20982 159.666 1.2593 159.584 1.29296C159.503 1.32662 159.415 1.34381 159.326 1.34354H0.673578C0.494935 1.34354 0.323605 1.27275 0.197285 1.14677C0.070965 1.02079 0 0.849935 0 0.671772C0 0.493608 0.070965 0.322722 0.197285 0.196741C0.323605 0.07076 0.494935 2.90484e-06 0.673578 2.90484e-06H159.326C159.415 -0.000257178 159.503 0.0169499 159.584 0.0506173C159.666 0.0842846 159.741 0.133758 159.803 0.19619C159.866 0.258621 159.915 0.332773 159.949 0.414393C159.983 0.496013 160 0.583481 160 0.671772Z" fill="#CCCCCC"/>
</svg>
