<svg width="26" height="13" viewBox="0 0 26 13" fill="none" xmlns="http://www.w3.org/2000/svg">
<path d="M22.9397 12.3499C22.2963 12.5983 21.6061 12.7031 20.9178 12.6568C20.2294 12.6104 19.5597 12.4141 18.9556 12.0817C18.3516 11.7492 17.8279 11.2888 17.4216 10.7327C17.0153 10.1766 16.7362 9.53839 16.6039 8.86308L0 6.51093L5.77323 0L20.6555 3.23186C21.8078 3.08545 22.9739 3.36567 23.9328 4.01943C24.8918 4.67319 25.5769 5.65507 25.8585 6.779C26.1401 7.90293 25.9984 9.09082 25.4605 10.1176C24.9225 11.1443 24.0257 11.9386 22.9397 12.3499L22.9397 12.3499Z" fill="#A0616A"/>
</svg>
