<svg width="30" height="24" viewBox="0 0 30 24" fill="none" xmlns="http://www.w3.org/2000/svg">
<path d="M5.05844 10.2656C5.60085 10.2698 6.14068 10.3404 6.66581 10.4759C7.70107 10.7241 8.75244 10.9 9.81226 11.0021C13.0575 11.3066 16.1068 12.6869 18.4732 14.9226C20.8396 17.1583 22.3866 20.1203 22.867 23.3357C23.6816 22.6274 25.5352 21.3245 27.0544 22.5354C27.0775 22.5546 27.091 22.5645 27.1444 22.5392C28.1534 22.0619 29.9445 16.1863 29.9987 11.0128C30.0273 8.267 29.5939 4.76067 27.3672 3.6503L27.2499 3.5918L27.2191 3.46463C27.0704 2.84697 25.4082 1.79263 22.5195 0.972007C17.2697 -0.519291 9.59887 -0.734885 5.19231 3.54044C4.85883 4.98176 3.61937 5.37669 2.52337 5.72631C1.30979 6.11328 0.261711 6.44723 0.0964848 7.93193C-0.0415023 10.0448 -0.0314716 12.1647 0.126501 14.2761C0.537723 12.9841 1.34491 11.8532 2.43442 11.0428C3.20905 10.5227 4.12473 10.2514 5.05844 10.2656Z" fill="#2F2E41"/>
</svg>
