<svg width="138" height="2" viewBox="0 0 138 2" fill="none" xmlns="http://www.w3.org/2000/svg">
<path d="M137.442 0H135.628V1.12362H138C137.82 0.747216 137.634 0.376434 137.442 0ZM121.906 0V1.12362H128.767V0H121.906ZM108.184 0V1.12362H115.045V0H108.184ZM94.4617 0V1.12362H101.323V0H94.4617ZM80.7394 0V1.12362H87.6006V0H80.7394ZM67.0172 0V1.12362H73.8783V0H67.0172ZM53.2949 0V1.12362H60.156V0H53.2949ZM39.5726 0V1.12362H46.4338V0H39.5726ZM25.856 0V1.12362H32.7115V0H25.856ZM12.1337 0V1.12362H18.9949V0H12.1337ZM0.557673 0C0.366147 0.376412 0.18026 0.747205 0 1.12362H5.27259V0H0.557673Z" fill="#E6E6E6"/>
</svg>
