<svg width="70" height="30" viewBox="0 0 70 30" fill="none" xmlns="http://www.w3.org/2000/svg">
<path d="M47.0759 29.9496L70 15.3075L58.4539 0L47.0528 13.9869L11.5295 16.1599C10.5951 15.2387 9.41222 14.6086 8.12503 14.3464C6.83783 14.0841 5.50195 14.2011 4.28024 14.6829C3.05854 15.1648 2.00383 15.9908 1.24468 17.0602C0.485524 18.1296 0.0547473 19.3961 0.00488012 20.7054C-0.0449871 22.0148 0.288203 23.3103 0.963828 24.434C1.63945 25.5577 2.6283 26.4611 3.80983 27.0341C4.99136 27.607 6.31452 27.8246 7.61795 27.6605C8.92138 27.4964 10.1488 26.9576 11.1505 26.1099L47.0759 29.9496Z" fill="#FFB6B6"/>
</svg>
