<svg width="11" height="9" viewBox="0 0 11 9" fill="none" xmlns="http://www.w3.org/2000/svg">
<path d="M10.3074 0.242858C10.1435 0.086968 9.92579 0 9.69934 0C9.47289 0 9.25514 0.086968 9.09129 0.242858C6.78014 2.08119 4.7043 4.19585 2.91046 6.53928C2.47005 5.68945 2.02967 4.83962 1.58933 3.98978C1.081 3.00886 -0.403566 3.87539 0.104342 4.85548C0.748456 6.09851 1.39257 7.34153 2.0367 8.58453C2.1144 8.71143 2.22351 8.81629 2.35353 8.88905C2.48355 8.9618 2.63012 9 2.77921 9C2.9283 9 3.0749 8.9618 3.20493 8.88905C3.33495 8.81629 3.44402 8.71143 3.52172 8.58453C5.43331 5.89944 7.71808 3.49914 10.3074 1.4557C10.4674 1.29421 10.5571 1.07632 10.5571 0.84928C10.5571 0.622242 10.4674 0.404355 10.3074 0.242858Z" fill="white"/>
</svg>
