<svg width="154" height="153" viewBox="0 0 154 153" fill="none" xmlns="http://www.w3.org/2000/svg">
<path d="M153.41 76.5C153.42 85.0849 151.978 93.61 149.146 101.717C149.016 102.094 148.881 102.465 148.746 102.842C142.948 118.545 132.164 131.93 118.035 140.957C117.071 141.576 116.095 142.166 115.103 142.74C103.815 149.266 91.0368 152.795 77.9909 152.989C77.5623 152.994 77.1336 153 76.7049 153C76.1522 153 75.6051 152.994 75.0581 152.983C61.9946 152.724 49.2164 149.125 37.9464 142.532C36.9538 141.953 35.9762 141.351 35.0136 140.726C19.3277 130.585 7.89049 115.085 2.84711 97.1327C-2.19626 79.1806 -0.49928 60.01 7.61979 43.2169C7.80027 42.84 7.98639 42.4687 8.17815 42.0919C14.5726 29.4358 24.3652 18.7991 36.4646 11.3671C48.564 3.93522 62.4949 0 76.7049 0C90.915 0 104.846 3.93522 116.945 11.3671C129.045 18.7991 138.837 29.4358 145.232 42.0919C145.423 42.4687 145.61 42.84 145.79 43.2169C150.822 53.5934 153.428 64.9735 153.41 76.5Z" fill="#F2F2F2"/>
</svg>
