<svg width="50" height="57" viewBox="0 0 50 57" fill="none" xmlns="http://www.w3.org/2000/svg">
<path d="M42.6677 29.8046L49.7347 3.5654L30.8496 0L31.8652 18.0104L7.05171 43.4919C5.73807 43.4383 4.43719 43.7671 3.30768 44.4382C2.17817 45.1092 1.26884 46.0935 0.690554 47.2711C0.11227 48.4487 -0.109964 49.7686 0.0509275 51.07C0.211819 52.3714 0.748904 53.5979 1.59668 54.6001C2.44445 55.6023 3.56627 56.3369 4.8254 56.7142C6.08452 57.0915 7.42653 57.0953 8.68778 56.7251C9.94902 56.3549 11.075 55.6267 11.9285 54.6293C12.782 53.6319 13.326 52.4084 13.4942 51.108L42.6677 29.8046Z" fill="#FFB6B6"/>
</svg>
