<svg width="144" height="2" viewBox="0 0 144 2" fill="none" xmlns="http://www.w3.org/2000/svg">
<path d="M137.143 0V1.12298H144V0H137.143ZM123.428 0V1.12298H130.285V0H123.428ZM109.713 0V1.12298H116.57V0H109.713ZM95.9981 0V1.12298H102.856V0H95.9981ZM82.2833 0V1.12298H89.1407V0H82.2833ZM68.5685 0V1.12298H75.4259V0H68.5685ZM54.8537 0V1.12298H61.7111V0H54.8537ZM41.1388 0V1.12298H47.9963V0H41.1388ZM27.4296 0V1.12298H34.2814V0H27.4296ZM13.7148 0V1.12298H20.5722V0H13.7148ZM0 0V1.12298H6.85741V0H0Z" fill="#E6E6E6"/>
</svg>
