<svg width="38" height="77" viewBox="0 0 38 77" fill="none" xmlns="http://www.w3.org/2000/svg">
<path d="M24.9215 0.7202C26.3193 1.51941 34.5898 -0.460876 36.205 0.102461C35.3134 5.52805 40.156 3.49205 34.8973 10.6173C29.6386 17.7425 19.0468 39.1058 16.6407 47.0902C14.2346 55.0747 16.6161 66.3269 16.2557 70.111C16.0816 72.3035 16.0924 74.5068 16.2882 76.6975C13.4469 76.6617 10.6465 77.2497 7.76084 76.8741C4.68352 68.1897 2.61442 55.8283 1.20943 48.9965C-0.195564 42.1647 -0.246961 45.0538 0.397434 41.6377C1.04183 38.2217 1.19786 40.7041 0.520931 37.436C-0.155997 34.1679 2.58164 30.0618 5.11112 27.7206C6.20173 24.5921 7.61121 21.675 8.69092 18.5791C16.6032 11.6952 17.1234 7.71866 24.9215 0.7202Z" fill="#6C63FF"/>
</svg>
