<svg width="64" height="138" viewBox="0 0 64 138" fill="none" xmlns="http://www.w3.org/2000/svg">
<path d="M11.2726 0L56.4631 1.12674C65.0457 5.77596 65.1761 15.8385 62.3639 27.7857C62.3639 27.7857 63.3133 34.8867 61.4146 36.7803C59.5159 38.6739 58.5666 38.6739 59.5159 41.9877C60.4652 45.3015 55.4495 50.7139 56.0587 51.3215C56.6679 51.9291 58.0919 55.2429 58.0919 55.2429L53.3452 82.2267C53.3452 82.2267 50.0225 129.093 49.0732 130.04C48.1239 130.987 47.1746 130.04 48.1239 132.407C49.0732 134.774 50.0225 133.827 49.0732 134.774C48.2323 135.678 47.44 136.627 46.6999 137.615H35.2238C35.2238 137.615 34.3585 132.881 34.3585 132.407C34.3585 131.934 33.4092 129.093 33.4092 128.62C33.4092 128.147 34.2482 127.31 34.2482 127.31C34.5382 126.347 34.7341 125.359 34.8332 124.359C34.8332 123.413 37.6812 86.9607 37.6812 86.9607L31.9852 39.6207L18.2198 86.0139C18.2198 86.0139 18.2198 126.726 17.2705 127.673C16.3211 128.62 16.3211 128.147 16.7958 130.04C17.2705 131.934 19.1691 131.46 17.7451 132.881C16.3211 134.301 15.8464 131.934 16.3211 134.301L16.7958 136.668L2.55573 136.871C2.55573 136.871 0.657047 132.881 1.60639 131.46C2.55572 130.04 2.49876 130.428 1.34056 128.104C0.182372 125.78 -0.292277 125.306 0.182393 124.833C0.657062 124.359 0.657046 121.841 0.657046 121.841L3.03041 76.5459C3.03041 76.5459 3.50507 28.7324 3.50507 27.3122C3.54085 26.5815 3.40587 25.8524 3.11078 25.1825V23.2548L4.92909 16.424L11.2726 0Z" fill="#2F2E41"/>
</svg>
