<svg width="39" height="48" viewBox="0 0 39 48" fill="none" xmlns="http://www.w3.org/2000/svg">
<path d="M32.353 47.3109C31.7032 46.3855 26.8452 37.2092 25.4012 33.739C25.2527 34.4905 25.159 35.2517 25.1207 36.0167L25.1064 36.3017L24.8226 36.3384C24.3957 36.3928 14.3134 37.6133 9.06635 31.6795C5.95763 28.1647 5.25264 22.8926 6.96812 16.0067C6.6561 15.9456 6.35714 15.8307 6.08465 15.6673C5.63092 15.3541 5.25116 14.9459 4.97185 14.4713C4.69254 13.9967 4.52041 13.467 4.46745 12.9192L4.17696 12.9969C-5.15784 8.4667 2.88427 -4.78577 11.4106 1.80309C12.1585 1.63642 12.9381 1.68111 13.6619 1.93211C14.36 2.21536 14.9682 2.68169 15.4221 3.28169C15.876 3.8817 16.1587 4.593 16.2401 5.34021C20.6455 3.02923 26.4759 3.40529 29.4913 5.13919C30.7539 5.86529 31.4789 6.77974 31.6076 7.79988C35.1693 7.99824 39 11.4584 39 16.3607V16.7021H38.6577C37.2248 16.7325 35.8272 17.1511 34.6145 17.9129C33.4018 18.6747 32.4197 19.7512 31.7734 21.027C30.8975 22.6052 30.464 24.3896 30.5185 26.1926C30.573 27.9956 31.1134 29.7507 32.0829 31.2734C33.1382 32.8885 33.8587 34.698 34.202 36.5951C34.5453 38.4923 34.5045 40.4387 34.0819 42.3199L32.7956 47.941L32.353 47.3109Z" fill="#2F2E41"/>
</svg>
