<svg width="73" height="134" viewBox="0 0 73 134" fill="none" xmlns="http://www.w3.org/2000/svg">
<path d="M71.2495 44.3211C67.3156 65.8832 66.3322 75.1931 66.3322 75.1931C66.3322 75.1931 69.2826 78.6233 67.3156 80.585C65.3487 82.5467 67.3156 86.4646 67.3156 86.4646L62.8928 134L59.3325 133.425L50.7559 132.049L47.6627 131.551L49.6296 86.9577C49.6296 86.9577 47.6627 83.0344 48.6462 82.0535C49.6296 81.0727 47.6627 75.1931 47.6627 75.1931L45.2067 28.6385L29.9712 79.6042C29.9712 79.6042 31.4491 81.5658 29.9712 83.0344C28.4987 84.5029 25.5538 91.8565 25.5538 91.8565L16.4938 123.474L15.7246 126.159L10.9995 125.276L5.8569 124.312L4.91187 124.137L3.23062 123.819L2.14828 123.616L1.78013 123.55L0 123.216L0.538466 120.833L0.818639 119.578L8.48315 85.6262L8.65897 84.8426L8.84579 84.0152C8.84579 84.0152 7.86231 81.5659 9.33476 80.0919C9.76553 79.6426 10.0802 79.0956 10.2515 78.4979C10.4229 77.9003 10.4458 77.2701 10.3183 76.6616C10.27 76.6104 10.2259 76.5554 10.1864 76.4973C10.0125 76.2591 9.89249 75.9861 9.83474 75.6972C9.70289 75.0835 9.81825 74.2232 10.8127 73.2314C11.0928 72.9346 11.3278 72.5987 11.5105 72.2341C13.0049 69.4121 13.7577 63.4339 13.7577 63.4339C13.7577 63.4339 15.0873 16.0848 19.4387 8.85177C19.6695 8.47367 24.2889 1.21515 24.5307 1.06719C29.4425 -1.86986 67.7105 2.1869 67.7105 2.1869C67.7105 2.1869 70.0283 8.39696 70.1327 9.04355C70.6986 12.6765 74.5845 26.0302 71.2495 44.3211Z" fill="#2F2E41"/>
</svg>
