<svg width="11" height="9" viewBox="0 0 11 9" fill="none" xmlns="http://www.w3.org/2000/svg">
<path d="M10.3074 0.242859C10.1435 0.0869681 9.92576 0 9.69931 0C9.47286 0 9.25511 0.0869681 9.09127 0.242859C6.78012 2.08119 4.70429 4.19585 2.91045 6.53928C2.47004 5.68946 2.02966 4.83962 1.58932 3.98978C1.081 3.00886 -0.403565 3.87539 0.104342 4.85548C0.748454 6.09851 1.39257 7.34153 2.03669 8.58454C2.11439 8.71144 2.2235 8.8163 2.35352 8.88906C2.48354 8.96181 2.63011 9.00001 2.7792 9.00001C2.92829 9.00001 3.0749 8.96181 3.20492 8.88906C3.33494 8.8163 3.44401 8.71144 3.52171 8.58454C5.4333 5.89945 7.71805 3.49914 10.3074 1.4557C10.4674 1.29421 10.5571 1.07632 10.5571 0.849281C10.5571 0.622243 10.4674 0.404356 10.3074 0.242859Z" fill="white"/>
</svg>
