<svg width="64" height="59" viewBox="0 0 64 59" fill="none" xmlns="http://www.w3.org/2000/svg">
<path d="M0 2.47763C1.32674 1.59431 2.83362 1.17947 4.04656 0C8.47556 3.18075 8.80147 -1.99814 12.8153 5.7928C16.8291 13.5838 31.1458 32.3679 37.1812 38.0159C43.2166 43.664 54.2675 46.5205 57.4719 48.5078C59.3438 49.6286 61.3068 50.5906 63.3402 51.3836C62.0555 53.8795 61.3432 56.6146 59.7369 59C50.6613 57.8909 38.7622 54.269 32.0707 52.4985C25.3792 50.7279 27.9243 52.0474 25.1723 49.9713C22.4203 47.8952 24.6954 48.8519 21.4923 48.0093C18.2892 47.1666 15.847 42.9357 14.8816 39.6671C12.5819 37.3234 10.6108 34.791 8.33538 32.4713C5.7062 22.4409 2.7814 12.4575 0 2.47763Z" fill="#6C63FF"/>
</svg>
